<svg height="512" viewBox="0 0 512 512" width="512" xmlns="http://www.w3.org/2000/svg"><g id="Fill_out_line" data-name="Fill out line"><g fill="#537ec2"><rect height="192" rx="16" width="64" x="56" y="232"/><rect height="320" rx="16" transform="matrix(-1 0 0 -1 640 528)" width="64" x="288" y="104"/><rect height="248" rx="16" transform="matrix(-1 0 0 -1 400 600)" width="64" x="168" y="176"/><rect height="400" rx="16" width="64" x="400" y="24"/></g><rect fill="#0e638b" height="48" rx="8" width="464" x="24" y="440"/><path d="m264 416-24.50059 55.12634a12 12 0 0 0 10.96573 16.87366h21.73638a12 12 0 0 0 10.96574-7.12634l28.83274-64.87366z" fill="#a06443"/><path d="m406.45163 416 24.50059 55.12634a12 12 0 0 1 -10.96574 16.87366h-21.73638a12 12 0 0 1 -10.96573-7.12634l-28.83274-64.87366z" fill="#a06443"/><path d="m328 248h16v32h-16z" fill="#f57a08"/><path d="m255.721 279.396h32v24h-32z" fill="#f57a08" transform="matrix(.766 -.643 .643 .766 -123.735 242.833)"/><path d="m239.152 246.88213h24.00009a28 28 0 0 1 28 28 12 12 0 0 1 -12 12h-56a12 12 0 0 1 -12-12 28 28 0 0 1 28-28z" fill="#f3b73f" transform="matrix(.766 -.643 .643 .766 -112.79 223.876)"/><path d="m384.279 279.396h32v24h-32z" fill="#f57a08" transform="matrix(.766 .643 -.643 .766 280.953 -189.121)"/><path d="m408.84793 246.88213h24.00007a28 28 0 0 1 28 28 12 12 0 0 1 -12 12h-56a12 12 0 0 1 -12-12 28 28 0 0 1 28-28z" fill="#f3b73f" transform="matrix(.766 .643 -.643 .766 270.008 -208.077)"/><circle cx="336" cy="368" fill="#f3b73f" r="96"/><circle cx="336" cy="368" fill="#f57a08" r="80"/><path d="m311.21539 373.07179 20.78461-12 8 13.8564-20.78461 12a4.28146 4.28146 0 0 1 -3.98341 6.41332l-14.39231-.9282a4.28148 4.28148 0 0 1 -3.5624-6.17026l6.39231-12.92821a4.28147 4.28147 0 0 1 7.54581-.24305z" fill="#72baaa"/><path d="m344 354.158v-26.158a4.28157 4.28157 0 0 0 3.5625-6.65649l-8-12a4.28171 4.28171 0 0 0 -7.125 0l-8 12a4.28157 4.28157 0 0 0 3.5625 6.65649v26.158a16 16 0 1 0 16 0z" fill="#b1cdb4"/><rect fill="#f3b73f" height="16" rx="8" width="48" x="312" y="232"/><path d="m104 428a20.0226 20.0226 0 0 0 20-20v-160a20.0226 20.0226 0 0 0 -20-20h-32a20.0226 20.0226 0 0 0 -20 20v160a20.0226 20.0226 0 0 0 20 20zm-44-20v-160a12.01343 12.01343 0 0 1 12-12h32a12.01343 12.01343 0 0 1 12 12v160a12.01343 12.01343 0 0 1 -12 12h-32a12.01343 12.01343 0 0 1 -12-12z"/><path d="m484.62109 287.46191a4.00028 4.00028 0 0 0 -4.63867 3.23633 55.28057 55.28057 0 0 1 -7.1543 18.99072 3.99969 3.99969 0 1 0 6.84376 4.14161 63.23515 63.23515 0 0 0 8.18554-21.729 3.99935 3.99935 0 0 0 -3.23633-4.63966z"/><path d="m336 452a84 84 0 1 0 -84-84 84.0953 84.0953 0 0 0 84 84zm0-160a76 76 0 1 1 -76 76 76.08614 76.08614 0 0 1 76-76z"/><circle cx="336" cy="368" r="8"/><path d="m300.582 396.40479 14.39258.92822c.18066.01172.35937.01758.53809.01758a8.28707 8.28707 0 0 0 8.27734-8.44434l4.35791-2.51648a19.99879 19.99879 0 0 0 19.85208-34.39172v-21.02539a8.28721 8.28721 0 0 0 2.88867-11.85157l-7.998-11.99755a8.28029 8.28029 0 0 0 -13.77929-.00245l-8 12a8.26255 8.26255 0 0 0 2.88862 11.84864v21.02832a20.08732 20.08732 0 0 0 -7.854 13.60852l-4.356 2.515a8.28669 8.28669 0 0 0 -11.706 3.42043l-6.39257 12.92774a8.2819 8.2819 0 0 0 6.89062 11.93506zm29.418-38.8003a4.00125 4.00125 0 0 0 2-3.46435v-26.14014a4.0002 4.0002 0 0 0 -4-4 .2973.2973 0 0 1 -.29-.29.25935.25935 0 0 1 .05762-.15137l8.00195-12.00244a.24384.24384 0 0 1 .23043-.12113.24643.24643 0 0 1 .23242.12353l8 11.99952a.24889.24889 0 0 1 .01563.29394.24065.24065 0 0 1 -.24805.14795 4.0002 4.0002 0 0 0 -4 4v26.14014a4.00125 4.00125 0 0 0 2 3.46435 12 12 0 1 1 -12 0zm-29.13672 30.41162 6.39258-12.92822a.23988.23988 0 0 1 .24316-.15674.25837.25837 0 0 1 .25293.14063 3.99937 3.99937 0 0 0 5.46387 1.46386l3.82617-2.20922a19.98137 19.98137 0 0 0 4.01465 6.92041l-3.84082 2.21753a4.00037 4.00037 0 0 0 -1.46484 5.46337.24159.24159 0 0 1 -.00489.28956.23811.23811 0 0 1 -.25586.13232l-14.39355-.92822a.28054.28054 0 0 1 -.2334-.40528z"/><path d="m254.709 258.67529a3.99992 3.99992 0 1 0 -5.14257-6.12793l-12.25588 10.28464a3.99992 3.99992 0 1 0 5.14257 6.12793z"/><path d="m235.24512 278.92383a3.99991 3.99991 0 0 0 -7.91016-1.19434 20.01578 20.01578 0 0 0 4.44531 15.8501 4.0003 4.0003 0 0 0 6.12891-5.14258 12.01148 12.01148 0 0 1 -2.66406-9.51318z"/><path d="m429.54688 268.96a3.99992 3.99992 0 1 0 5.14257-6.12793l-12.25586-10.28467a3.99992 3.99992 0 1 0 -5.14257 6.12793z"/><path d="m394.25488 259.01221a3.99127 3.99127 0 0 0 3.06641-1.42871 12.00718 12.00718 0 0 1 8.90527-4.27539 4.00024 4.00024 0 0 0 -.19726-7.99805 20.017 20.017 0 0 0 -14.83692 7.13086 4.00029 4.00029 0 0 0 3.0625 6.57129z"/><path d="m18 448v32a14.01572 14.01572 0 0 0 14 14h448a14.01572 14.01572 0 0 0 14-14v-32a14.01572 14.01572 0 0 0 -14-14h-58.98145l-1.77929-4h28.76074a22.02489 22.02489 0 0 0 22-22v-110.84082a47.81642 47.81642 0 0 0 1.46289-4.79688 3.99872 3.99872 0 0 0 -1.46289-4.14501v-5.10229a3.9897 3.9897 0 0 0 2.84766-3.94409 48.06059 48.06059 0 0 0 -2.84766-14.81129v-16.84692a55.51318 55.51318 0 0 1 10.71973 29.2749 3.99922 3.99922 0 0 0 3.98632 3.72217c.09278 0 .1875-.00293.28125-.00977a3.99984 3.99984 0 0 0 3.7129-4.26807 63.33059 63.33059 0 0 0 -18.7002-40.9021v-195.32983a22.02489 22.02489 0 0 0 -22-22h-32a22.02489 22.02489 0 0 0 -22 22v162.54565a63.90013 63.90013 0 0 0 -16.83594 5.87085 3.99995 3.99995 0 0 0 3.67188 7.10743 55.775 55.775 0 0 1 13.16406-4.78882v8.22876a47.70827 47.70827 0 0 0 -12.83789 5.58252 4.00035 4.00035 0 0 0 4.23633 6.78711 39.6739 39.6739 0 0 1 8.60156-4.00415v6.34936a33.81618 33.81618 0 0 0 -13.53613 9.76514 18.0264 18.0264 0 0 0 2.21972 25.35254l4.60254 3.86181-4.11035 4.89453a100.9876 100.9876 0 0 0 -25.17578-9.16992v-15.73535a13.99739 13.99739 0 0 0 0-25.29492v-107.35254a22.02489 22.02489 0 0 0 -22-22h-32a22.02489 22.02489 0 0 0 -22 22v83.47217a63.7479 63.7479 0 0 0 -9.87109-1.82129 4 4 0 1 0 -.81836 7.958 55.59946 55.59946 0 0 1 10.68945 2.17799v8.42919a48.04554 48.04554 0 0 0 -9.71387-2.4353 3.99978 3.99978 0 1 0 -1.13281 7.919 39.813 39.813 0 0 1 10.84668 3.16706v6.67908a34.10055 34.10055 0 0 0 -38.36523 3.70654l-5.63477 4.72556v-7.82935l1.78223-1.49536a39.91978 39.91978 0 0 1 20.208-8.97119 3.99988 3.99988 0 1 0 -1.09961-7.92383 47.92445 47.92445 0 0 0 -20.89062 8.19827v-9.43872a56.16333 56.16333 0 0 1 19.252-6.61157 4.00007 4.00007 0 0 0 -1.18359-7.91211 64.1861 64.1861 0 0 0 -18.06841 5.51953v-15.51367a22.02489 22.02489 0 0 0 -22-22h-32a22.02489 22.02489 0 0 0 -22 22v216a22.02489 22.02489 0 0 0 22 22h32a22.02489 22.02489 0 0 0 22-22v-11.56006a101.11842 101.11842 0 0 0 14.64355 30.3418l-3.21093 7.21826h-217.43262a14.01572 14.01572 0 0 0 -14 14zm268.04541 36a15.88413 15.88413 0 0 0 .77686-1.502l9.999-22.49659a99.93728 99.93728 0 0 0 77.051.54322l9.7566 21.95337a15.88171 15.88171 0 0 0 .77685 1.502zm193.95459-40a4.00427 4.00427 0 0 1 4 4v32a4.00427 4.00427 0 0 1 -4 4h-46.16211a15.93728 15.93728 0 0 0 .76953-14.498l-11.33398-25.502zm-52.70312 28.751a8.00022 8.00022 0 0 1 -7.31055 11.249h-21.73633a8.00635 8.00635 0 0 1 -7.31055-4.751l-9.79345-22.036a100.59789 100.59789 0 0 0 29.25683-22.47436zm-23.29688-432.751a12.01343 12.01343 0 0 1 12-12h32a12.01343 12.01343 0 0 1 12 12v186.627l-12.34961-10.36133a64.08969 64.08969 0 0 0 -41.12012-14.96582c-.844 0-1.6875.02308-2.53027.05665zm0 169.37573c.84277-.03833 1.68579-.07593 2.53027-.07593a56.07563 56.07563 0 0 1 35.97852 13.09473l17.49121 14.67547v10.93957a47.56212 47.56212 0 0 0 -4.248-4.053l-18.38281-15.43213a48.08266 48.08266 0 0 0 -30.83887-11.22461c-.84594 0-1.689.02942-2.53027.07349zm0 16.012c.84058-.05286 1.68359-.0879 2.53027-.0879a40.06541 40.06541 0 0 1 25.69727 9.35352l18.38184 15.43213a39.79666 39.79666 0 0 1 9.39062 11.49863v38.332a40.30952 40.30952 0 0 1 -3.27344 5.04187 4 4 0 0 0 3.18067 6.42187c.03125 0 .06152-.00976.09277-.0105v96.63065a12.01343 12.01343 0 0 1 -12 12h-26.61377a99.80362 99.80362 0 0 0 -7.11523-114.16479l6.47119-7.71192 6.12793 5.14185v.00048a16.01852 16.01852 0 0 0 22.542-1.97265 32.03749 32.03749 0 0 0 -3.94434-45.082l-18.38578-15.42728a31.89009 31.89009 0 0 0 -23.082-7.36755zm4.97217 74.31542a100.75957 100.75957 0 0 0 -18.3728-15.44006l5.62939-6.7091 18.38452 15.42651zm-20.84424-49.833a24.026 24.026 0 0 1 33.81152-2.9585l18.38575 15.42725a24.02759 24.02759 0 0 1 2.958 33.812 8.00718 8.00718 0 0 1 -11.2705.98584v.00049l-9.19214-7.71314-.00025-.00024-.00024-.00025-24.511-20.56713-.00244-.00245-.00268-.00195-9.1897-7.71094a8.00938 8.00938 0 0 1 -.98632-11.27101zm-36.12793-13.87015a4 4 0 0 1 0 8h-32a4 4 0 0 1 0-8zm-12 16v16.08691c-1.32764-.05249-2.65967-.08691-4-.08691s-2.67236.03442-4 .08691v-16.08691zm-48 10.27148a16.057 16.057 0 0 0 0-14.4934v-17.55808c.041-.05859.08667-.11255.125-.17407a3.99992 3.99992 0 0 0 -.125-4.42114v-9.78443a3.99837 3.99837 0 0 0 2.83594-7.42383c-.93579-.48364-1.88208-.93945-2.83594-1.37451v-87.04202a12.01343 12.01343 0 0 1 12-12h32a12.01343 12.01343 0 0 1 12 12v108h-28a12 12 0 0 0 0 24h4v16.72253a99.19823 99.19823 0 0 0 -32 9.494zm-64 145.72852a12.01343 12.01343 0 0 1 -12 12h-32a12.01343 12.01343 0 0 1 -12-12v-216a12.01343 12.01343 0 0 1 12-12h32a12.01343 12.01343 0 0 1 12 12v21.42773q-1.87134 1.351-3.65137 2.83789l-18.38963 15.43018a64.08689 64.08689 0 0 0 -13.63086 82.13525 3.99994 3.99994 0 0 0 6.84376-4.14257 56.37757 56.37757 0 0 1 11.92968-71.86426l16.89842-14.17871v10.45049l-11.75 9.85962a47.92383 47.92383 0 0 0 -7.3418 65.84814 3.99972 3.99972 0 1 0 6.36328-4.84766 39.93539 39.93539 0 0 1 6.12012-54.87158l6.6084-5.54497v10.43982l-1.46777 1.23157a32.038 32.038 0 0 0 -3.94434 45.08252 15.89055 15.89055 0 0 0 5.41211 4.16504zm.7168-111.84863a24.02814 24.02814 0 0 1 2.958-33.8125l18.38575-15.42725a24.02519 24.02519 0 0 1 33.81152 2.958 8.00993 8.00993 0 0 1 -.98633 11.27148l-9.19018 7.71143-.0022.00146-.00171.00183-33.70435 28.2809a8.01127 8.01127 0 0 1 -11.2705-.98535zm52.68383-11.88831a100.75957 100.75957 0 0 0 -18.3728 15.44006l-5.64111-6.72265 18.38452-15.42647zm-43.40063 24.45764a17.91168 17.91168 0 0 0 8.417-3.92382l4.59278-3.85352 4.11621 4.90576a102.04045 102.04045 0 0 0 -17.12599 33.90772zm6 59.2793a92 92 0 1 1 92 92 92.10447 92.10447 0 0 1 -92-92zm16.56543 65.57642a100.64746 100.64746 0 0 0 29.03125 22.98291l-10.085 22.68969a8.00634 8.00634 0 0 1 -7.31051 4.75098h-21.73633a7.9999 7.9999 0 0 1 -7.31054-11.249zm-24.72168 35.92558a15.9357 15.9357 0 0 0 .76978 14.498h-204.61353a4.00427 4.00427 0 0 1 -4-4v-32a4.00427 4.00427 0 0 1 4-4h215.17822z"/></g></svg>