<svg width="122.88" height="74.85" xmlns="http://www.w3.org/2000/svg">
 <style type="text/css">.st0{fill-rule:evenodd;clip-rule:evenodd;}</style>

 <g>
  <title>background</title>
  <rect fill="none" id="canvas_background" height="402" width="582" y="-1" x="-1"/>
 </g>
 <g>
  <title>Layer 1</title>
  <g id="svg_1">
   <path fill="#6563ff" id="svg_2" d="m58.11,57.37c4.78,9.96 19.26,10.31 23.84,0.06c-1.25,-1.26 -2.17,-2.62 -3.09,-3.96c-0.15,-0.22 -0.3,-0.44 -0.45,-0.66c-2.21,1.75 -4.89,2.87 -8.38,2.86c-3.77,-0.01 -6.6,-1.45 -8.93,-3.58c-0.14,-0.13 -0.28,-0.26 -0.41,-0.39c-0.33,0.93 -0.76,2.03 -1.21,3.07c-0.45,0.99 -0.92,1.93 -1.37,2.6l0,0zm37.08,-16.21l2.36,0l5.77,-6.46c0.51,-0.57 1.4,-0.62 1.97,-0.11l0,0c0.57,0.51 0.62,1.4 0.11,1.97l-4.1,4.6l12.57,0l-4.1,-4.6c-0.51,-0.57 -0.46,-1.46 0.11,-1.97l0,0c0.57,-0.51 1.46,-0.46 1.97,0.11l5.77,6.46l2.25,0l0.03,0l2.11,0c0.47,0 0.86,0.39 0.86,0.86l0,2.43c0,0.47 -0.39,0.86 -0.86,0.86l-1.83,0l-0.94,11.87c-0.03,0.33 -0.27,0.6 -0.6,0.6l-22.22,0c-0.33,0 -0.57,-0.27 -0.6,-0.6l-0.94,-11.87l-1.83,0c-0.47,0 -0.86,-0.39 -0.86,-0.86l0,-2.43c0,-0.47 0.39,-0.86 0.86,-0.86l2.12,0l0.02,0l0,0zm16.4,4.62l2.72,0l0,7.88l-2.72,0l0,-7.88l0,0zm-5.3,0l2.72,0l0,7.88l-2.72,0l0,-7.88l0,0zm-5.3,0l2.72,0l0,7.88l-2.72,0l0,-7.88l0,0zm-58.82,14c0.74,0.29 1.48,0.58 2.21,0.87c4.54,-1.11 9.41,-2.27 12.31,-4.3c0.38,-0.57 0.78,-1.39 1.17,-2.28c0.59,-1.34 1.13,-2.81 1.47,-3.81c-1.44,-1.69 -2.66,-3.59 -3.84,-5.47l-3.89,-6.18c-1.42,-2.12 -2.16,-4.06 -2.2,-5.64c-0.02,-0.75 0.11,-1.43 0.38,-2.02c0.29,-0.63 0.73,-1.15 1.34,-1.55c0.28,-0.19 0.6,-0.35 0.94,-0.48c-0.25,-3.35 -0.35,-7.57 -0.18,-11.11c0.08,-0.84 0.24,-1.68 0.48,-2.52c0.99,-3.55 3.48,-6.4 6.56,-8.37c1.7,-1.08 3.56,-1.9 5.5,-2.45c1.23,-0.35 -1.05,-4.29 0.22,-4.43c6.17,-0.63 16.15,5 20.45,9.66c2.16,2.33 3.51,5.43 3.8,9.52l-0.24,10.08l0,0c1.08,0.33 1.77,1.01 2.05,2.12c0.31,1.22 -0.03,2.95 -1.06,5.31l0,0c-0.02,0.04 -0.04,0.08 -0.07,0.13l-4.43,7.29c-1.63,2.68 -3.28,5.36 -5.43,7.49c0.19,0.28 0.39,0.56 0.58,0.85c0.88,1.28 1.76,2.57 2.89,3.72c0.04,0.04 0.07,0.08 0.1,0.12c5.1,3.6 16.37,4.47 21.13,7.13c1.58,0.88 3.01,2 4.16,3.52c1.04,1.37 2.55,4.94 3.28,7.88c-37.25,0 -74.49,0 -111.73,0c-1.62,-9.01 12.06,-13.26 16.25,-16.81c1.87,-1.58 4.01,-3.39 4.25,-3.94c-0.6,-0.6 -1.15,-1.24 -1.69,-1.86l-2.33,-2.71l-1.74,0.05l-3.31,0.09c-2.82,-3.3 -2.65,-10.31 -2.37,-14.36c1.32,-8.14 4.47,-14 9.59,-17.39c3.47,-2.3 5.54,-2.42 9.6,-2.43c3.54,0 5.71,-0.08 8.73,1.91c9.84,6.48 12.89,21.77 8.08,32.07l-3.44,0l-0.22,0.26l-0.3,0.36l-1.49,1.79c-0.87,1.04 -1.75,2.09 -2.78,3.01c0.62,0.82 2.36,2.34 3.9,3.69c0.46,0.43 0.91,0.82 1.32,1.19l0,0zm-10.86,7.36c0.04,-0.06 0.08,-0.12 0.13,-0.17c1.15,-1.52 2.58,-2.64 4.16,-3.52c0.76,-0.42 1.69,-0.8 2.73,-1.15c0.49,-0.86 0.88,-1.83 1.12,-2.92c-1.46,-1.28 -2.99,-2.65 -3.68,-3.53l-0.07,0.05c-1.68,1.15 -3.74,1.91 -6.57,1.9c-2.64,-0.01 -4.62,-0.74 -6.25,-1.83c-0.4,-0.27 -0.78,-0.56 -1.14,-0.86c-0.78,1.03 -2.68,2.63 -4.38,4.07l-0.36,0.3c-0.17,5.85 7.77,9.12 14.31,7.66l0,0zm22.99,-36.44c-0.86,0.03 -1.51,0.21 -1.96,0.51c-0.25,0.17 -0.44,0.39 -0.56,0.65c-0.13,0.29 -0.19,0.64 -0.18,1.04c0.03,1.18 0.65,2.73 1.85,4.51l0.02,0.03l0,0l3.89,6.18c1.56,2.48 3.19,5 5.22,6.86c1.95,1.78 4.32,2.99 7.45,3c3.39,0.01 5.87,-1.25 7.88,-3.13c2.09,-1.96 3.75,-4.65 5.37,-7.33l4.38,-7.21c0.82,-1.86 1.11,-3.11 0.93,-3.84c-0.11,-0.43 -0.59,-0.65 -1.41,-0.69c-0.17,-0.01 -0.35,-0.01 -0.53,-0.01c-0.2,0.01 -0.4,0.02 -0.61,0.04c-0.12,0.01 -0.23,0 -0.34,-0.02c-0.39,0.02 -0.79,-0.01 -1.2,-0.07l1.5,-6.63c-11.12,1.75 -19.44,-6.51 -31.19,-1.65l0.85,7.82c-0.5,0.02 -0.94,0.01 -1.36,-0.06l0,0l0,0zm-37.05,17.61c-2.74,-9.4 -1.46,-18.04 5.94,-25.44c1.31,4.23 4.24,7.72 9.23,10.3c2.39,1.77 4.69,3.91 6.93,6.37c0.4,-1.63 -1.11,-3.61 -2.95,-5.65c1.69,0.84 3.25,2.01 4.36,4.26c1.28,2.61 1.26,4.82 0.84,7.66c-0.13,0.87 -0.32,1.71 -0.56,2.5c-0.08,0.04 -0.14,0.1 -0.2,0.16c-0.2,0.25 -0.41,0.49 -0.59,0.71c-0.07,0.08 -0.13,0.16 -0.31,0.37l-1.49,1.79c-1.14,1.38 -2.3,2.75 -3.78,3.76c-1.42,0.97 -3.16,1.61 -5.55,1.61c-2.2,0 -3.87,-0.62 -5.24,-1.54c-1.43,-0.95 -2.57,-2.25 -3.67,-3.52l-2.73,-3.17c-0.06,-0.07 -0.14,-0.13 -0.23,-0.17l0,0z" class="st0"/>
  </g>
 </g>
</svg>