<svg width="96.41" height="122.88" xmlns="http://www.w3.org/2000/svg">

 <g>
  <title>background</title>
  <rect fill="none" id="canvas_background" height="402" width="582" y="-1" x="-1"/>
 </g>
 <g>
  <title>Layer 1</title>
  <g id="svg_1">
   <path fill="#5351d1" id="svg_2" d="m65.07,122.88l-59.62,0c-1.47,0 -2.85,-0.61 -3.85,-1.61s-1.6,-2.33 -1.6,-3.85l0,-111.97c0,-1.51 0.61,-2.85 1.6,-3.85s2.34,-1.6 3.85,-1.6c27.78,0 57.77,0 85.41,0c1.52,0 2.85,0.61 3.85,1.6c1,0.99 1.61,2.33 1.61,3.85l0,85.67c0.04,0.21 0.09,0.39 0.09,0.61c0,0.74 -0.34,1.39 -0.83,1.86l-28.18,28.5c-0.47,0.47 -1.57,0.81 -2.33,0.79l0,0zm-52.29,-109.15l3.33,0l0,13.94l-3.33,0l0,-13.94l0,0zm6.14,0l3.1,0l4.03,7.7l0,-7.7l3.14,0l0,13.94l-3.14,0l-4.01,-7.66l0,7.66l-3.12,0l0,-13.94l0,0zm11.82,0l3.47,0l2.42,10.04l2.39,-10.04l3.37,0l-3.99,13.94l-3.6,0l-4.06,-13.94l0,0zm12.19,6.98c0,-2.28 0.49,-4.05 1.47,-5.31c0.98,-1.27 2.34,-1.9 4.09,-1.9c1.79,0 3.17,0.62 4.14,1.87c0.97,1.24 1.45,2.99 1.45,5.23c0,1.63 -0.21,2.96 -0.63,4c-0.42,1.04 -1.04,1.85 -1.83,2.43c-0.8,0.58 -1.8,0.87 -2.99,0.87c-1.21,0 -2.22,-0.25 -3.01,-0.75c-0.79,-0.5 -1.44,-1.3 -1.93,-2.38c-0.51,-1.07 -0.76,-2.43 -0.76,-4.06l0,0zm3.32,0.01c0,1.41 0.2,2.42 0.61,3.03c0.4,0.61 0.96,0.92 1.65,0.92c0.71,0 1.27,-0.3 1.66,-0.9c0.39,-0.6 0.59,-1.68 0.59,-3.24c0,-1.31 -0.21,-2.27 -0.61,-2.87c-0.41,-0.61 -0.96,-0.91 -1.66,-0.91c-0.67,0 -1.21,0.31 -1.62,0.92c-0.41,0.61 -0.62,1.63 -0.62,3.05l0,0zm10.14,-6.99l3.33,0l0,13.94l-3.33,0l0,-13.94l0,0zm13.27,8.24l2.91,1.14c-0.2,1.06 -0.51,1.94 -0.93,2.65c-0.42,0.71 -0.94,1.25 -1.57,1.61c-0.62,0.36 -1.42,0.54 -2.38,0.54c-1.17,0 -2.13,-0.22 -2.87,-0.66c-0.74,-0.44 -1.38,-1.22 -1.92,-2.32c-0.54,-1.1 -0.81,-2.53 -0.81,-4.25c0,-2.3 0.47,-4.08 1.42,-5.32c0.95,-1.24 2.29,-1.86 4.02,-1.86c1.35,0 2.42,0.35 3.2,1.06c0.77,0.71 1.35,1.8 1.73,3.27l-2.93,0.84c-0.1,-0.42 -0.21,-0.73 -0.32,-0.92c-0.19,-0.33 -0.42,-0.58 -0.68,-0.76c-0.27,-0.18 -0.57,-0.27 -0.9,-0.27c-0.76,0 -1.33,0.39 -1.73,1.17c-0.3,0.58 -0.46,1.5 -0.46,2.74c0,1.54 0.18,2.6 0.54,3.17c0.36,0.57 0.87,0.86 1.53,0.86c0.64,0 1.12,-0.23 1.44,-0.69c0.33,-0.45 0.56,-1.12 0.71,-2l0,0zm4.91,-8.24l8.89,0l0,2.98l-5.56,0l0,2.22l5.15,0l0,2.84l-5.15,0l0,2.75l5.72,0l0,3.16l-9.05,0l0,-13.95l0,0zm-47,77.68c2.2,0 4.19,0.89 5.64,2.34c1.44,1.44 2.34,3.44 2.34,5.64c0,2.2 -0.89,4.19 -2.34,5.64c-1.44,1.44 -3.44,2.33 -5.64,2.33s-4.19,-0.89 -5.64,-2.33c-1.44,-1.44 -2.34,-3.44 -2.34,-5.64c0,-2.2 0.89,-4.2 2.34,-5.64c1.45,-1.45 3.44,-2.34 5.64,-2.34l0,0zm3.59,4.39c-0.92,-0.92 -2.19,-1.48 -3.59,-1.48s-2.67,0.57 -3.59,1.48s-1.48,2.19 -1.48,3.59c0,1.4 0.57,2.67 1.48,3.59s2.19,1.48 3.59,1.48s2.67,-0.57 3.59,-1.48s1.48,-2.19 1.48,-3.59c0.01,-1.41 -0.56,-2.68 -1.48,-3.59l0,0zm-3.59,-10.99c4.02,0 7.66,1.63 10.3,4.27c2.64,2.64 4.27,6.28 4.27,10.3c0,4.02 -1.63,7.66 -4.27,10.29c-2.64,2.64 -6.28,4.27 -10.3,4.27s-7.67,-1.63 -10.3,-4.27c-2.64,-2.64 -4.27,-6.28 -4.27,-10.3c0,-4.02 1.63,-7.67 4.27,-10.3l0.09,-0.07c2.63,-2.59 6.24,-4.19 10.21,-4.19l0,0zm8.26,6.32c-2.11,-2.11 -5.03,-3.41 -8.25,-3.41c-3.19,0 -6.08,1.28 -8.19,3.35l-0.07,0.07c-2.11,2.11 -3.42,5.03 -3.42,8.25c0,3.22 1.31,6.14 3.42,8.25c2.11,2.11 5.03,3.42 8.25,3.42s6.14,-1.31 8.25,-3.42c2.11,-2.11 3.42,-5.03 3.42,-8.25c0,-3.23 -1.3,-6.15 -3.41,-8.26l0,0zm-12.31,-46.42c-0.97,0 -1.75,-0.78 -1.75,-1.75s0.78,-1.75 1.75,-1.75l35.12,0c0.97,0 1.75,0.78 1.75,1.75s-0.78,1.75 -1.75,1.75l-35.12,0l0,0zm0,26.13c-0.97,0 -1.75,-0.78 -1.75,-1.75c0,-0.97 0.78,-1.75 1.75,-1.75l48.42,0c0.97,0 1.75,0.78 1.75,1.75c0,0.97 -0.78,1.75 -1.75,1.75l-48.42,0l0,0zm0,-10.7c-0.97,0 -1.75,-0.78 -1.75,-1.75c0,-0.97 0.78,-1.75 1.75,-1.75l35.12,0c0.97,0 1.75,0.78 1.75,1.75c0,0.97 -0.78,1.75 -1.75,1.75l-35.12,0l0,0zm55.8,-8.43l-62.23,0l0,23.93l62.23,0l0,-23.93l0,0zm-62.23,-3.5l62.23,0l0,-10.63l-62.23,0l0,10.63l0,0zm-1.75,-14.13l65.73,0c0.97,0 1.75,0.78 1.75,1.75l0,14.13l0,27.44c0,0.97 -0.78,1.75 -1.75,1.75l-65.73,0c-0.97,0 -1.75,-0.79 -1.75,-1.75l0,-27.44l0,-14.13c0,-0.96 0.78,-1.75 1.75,-1.75l0,0zm47.66,83.9l0,-21.33c0,-2.04 0.83,-3.9 2.17,-5.24c1.34,-1.34 3.2,-2.17 5.24,-2.17l20.94,0l0,-83.8c0,-0.13 -0.04,-0.3 -0.18,-0.39c-0.09,-0.09 -0.22,-0.18 -0.39,-0.18c-21.99,0 -63.97,0 -85.36,0c-0.13,0 -0.31,0.04 -0.39,0.18c-0.11,0.09 -0.2,0.26 -0.2,0.39l0,111.98c0,0.18 0.04,0.3 0.18,0.39c0.09,0.09 0.22,0.18 0.39,0.18l57.54,0l0.06,-0.01l0,0l0,0zm4.89,-21.33l0,17.87l20.12,-20.38l-17.61,0c-0.69,0 -1.3,0.31 -1.77,0.74c-0.44,0.43 -0.74,1.08 -0.74,1.77l0,0l0,0z"/>
  </g>
 </g>
</svg>