<svg width="114.37" height="122.88" xmlns="http://www.w3.org/2000/svg">
 <style type="text/css">.st0{fill-rule:evenodd;clip-rule:evenodd;}</style>

 <g>
  <title>background</title>
  <rect fill="none" id="canvas_background" height="402" width="582" y="-1" x="-1"/>
 </g>
 <g>
  <title>Layer 1</title>
  <g id="svg_1">
   <path fill="#5351d1" id="svg_2" d="m40.59,72.87l11.07,0c0.94,0 1.73,0.77 1.73,1.73l0,9.34c0,0.94 -0.77,1.73 -1.73,1.73l-11.07,0c-0.94,0 -1.73,-0.77 -1.73,-1.73l0,-9.34c0.01,-0.96 0.78,-1.73 1.73,-1.73l0,0l0,0zm44.8,-2.21c-0.98,-2.88 -1.85,-5.78 -2.59,-8.73c2.76,-3.03 13.42,-2.63 16.5,-0.05l-2.84,6.75c1.53,-2.01 2.04,-2.83 2.95,-3.95c0.39,0.25 0.74,0.53 1.08,0.84c0.81,0.73 1.53,1.54 1.67,2.66c0.09,0.73 -0.11,1.47 -0.77,2.23l-6.51,7.59c-0.84,-0.14 -1.66,-0.34 -2.45,-0.62c0.37,-0.87 0.82,-1.83 1.19,-2.7l-2.37,2.56c-2.47,-0.52 -4.46,-0.21 -6.31,0.77l-6.61,-7.93c-0.39,-0.47 -0.57,-0.94 -0.57,-1.42c0.01,-1.91 2.86,-3.57 4.36,-4.2l3.27,6.2l0,0l0,0zm-78.86,-70.66l79.18,0c1.79,0 3.43,0.73 4.61,1.92c0.04,0.04 0.08,0.08 0.12,0.13c1.11,1.17 1.8,2.75 1.8,4.48l0,47c-0.59,-0.04 -1.18,-0.05 -1.76,-0.05c-0.72,0 -1.44,0.03 -2.15,0.09l0,-47.04c0,-0.69 -0.26,-1.31 -0.69,-1.77l-0.08,-0.08c-0.48,-0.48 -1.13,-0.77 -1.85,-0.77l-79.18,0c-0.72,0 -1.38,0.29 -1.85,0.76l-0.01,0.01c-0.47,0.47 -0.76,1.12 -0.76,1.85l0,107.08c0,0.68 0.26,1.31 0.69,1.77l0.08,0.08c0.48,0.48 1.13,0.77 1.85,0.77l53.65,0c0.21,0.8 0.47,1.6 0.78,2.39c0.21,0.54 0.44,1.04 0.7,1.52l-55.13,0c-1.79,0 -3.43,-0.73 -4.61,-1.92c-0.04,-0.04 -0.08,-0.09 -0.12,-0.13c-1.11,-1.17 -1.8,-2.75 -1.8,-4.48l0,-107.08c0,-1.79 0.73,-3.42 1.92,-4.61l0.01,-0.01c1.18,-1.18 2.81,-1.91 4.6,-1.91l0,0zm8.08,12.75l63.01,0c0.96,0 1.82,0.39 2.44,1.01c0.05,0.05 0.1,0.1 0.14,0.16c0.54,0.61 0.87,1.41 0.87,2.29l0,19.69c0,0.95 -0.39,1.81 -1.01,2.44l-0.01,0.01c-0.63,0.63 -1.49,1.01 -2.44,1.01l-63,0c-0.96,0 -1.82,-0.39 -2.44,-1.01c-0.05,-0.05 -0.1,-0.1 -0.14,-0.16c-0.54,-0.61 -0.87,-1.41 -0.87,-2.29l0,-19.69c0,-0.94 0.39,-1.8 1.02,-2.43l0.01,-0.01c0.62,-0.63 1.48,-1.02 2.42,-1.02l0,0zm62.56,3.91l-62.1,0l0,18.79l62.11,0l0,-18.79l-0.01,0zm16.7,68.33l-1.29,-5.9c5.52,1.03 14.38,12.26 17.24,17.37c1.46,2.61 2.74,5.48 3.79,8.69c2.08,7.77 0.08,15.04 -8.35,16.74c-5.28,1.06 -15.13,1.13 -20.69,0.85c-5.97,-0.31 -15.22,-0.3 -17.63,-6.43c-3.9,-9.9 3.24,-21.69 9.75,-28.91c0.86,-0.95 1.74,-1.83 2.66,-2.65c2.37,-2.08 4.92,-4.55 7.97,-5.59l-2.95,5.48l4.28,-5.67l2.25,0l2.97,6.02l0,0l0,0zm-2.75,4.84l0,1.04c1.1,0.12 2.05,0.34 2.84,0.68c0.79,0.34 1.48,0.86 2.07,1.55c0.47,0.53 0.83,1.07 1.08,1.63c0.25,0.56 0.38,1.07 0.38,1.54c0,0.52 -0.19,0.97 -0.56,1.34c-0.38,0.37 -0.84,0.56 -1.38,0.56c-1.02,0 -1.67,-0.55 -1.97,-1.64c-0.34,-1.29 -1.16,-2.15 -2.46,-2.57l0,6.44c1.28,0.35 2.3,0.67 3.06,0.96c0.76,0.29 1.44,0.7 2.04,1.25c0.64,0.56 1.13,1.25 1.48,2.03c0.34,0.79 0.52,1.65 0.52,2.59c0,1.18 -0.27,2.28 -0.83,3.3c-0.55,1.03 -1.37,1.86 -2.44,2.52c-1.08,0.65 -2.35,1.04 -3.83,1.16l0,1.05c0,0.61 -0.06,1.05 -0.18,1.33c-0.12,0.28 -0.37,0.42 -0.78,0.42c-0.37,0 -0.63,-0.11 -0.78,-0.34c-0.15,-0.23 -0.22,-0.58 -0.22,-1.06l0,-1.38c-1.21,-0.13 -2.26,-0.42 -3.17,-0.85c-0.9,-0.43 -1.66,-0.97 -2.26,-1.62c-0.6,-0.65 -1.05,-1.32 -1.33,-2.01c-0.29,-0.7 -0.43,-1.39 -0.43,-2.05c0,-0.49 0.19,-0.94 0.58,-1.34c0.39,-0.39 0.87,-0.59 1.44,-0.59c0.47,0 0.86,0.11 1.18,0.32c0.32,0.22 0.54,0.52 0.67,0.91c0.28,0.85 0.52,1.49 0.72,1.95c0.21,0.45 0.52,0.86 0.94,1.23c0.42,0.37 0.97,0.66 1.66,0.85l0,-7.2c-1.39,-0.39 -2.54,-0.81 -3.47,-1.28c-0.93,-0.47 -1.68,-1.13 -2.26,-2c-0.57,-0.87 -0.87,-1.98 -0.87,-3.34c0,-1.78 0.56,-3.23 1.69,-4.36c1.13,-1.13 2.76,-1.8 4.9,-1.98l0,-1.01c0,-0.87 0.33,-1.3 0.98,-1.3c0.66,0 0.99,0.42 0.99,1.27l0,0l0,0zm-1.97,9.99l0,-5.93c-0.87,0.26 -1.55,0.6 -2.03,1.02c-0.49,0.42 -0.73,1.07 -0.73,1.93c0,0.81 0.23,1.43 0.68,1.85c0.46,0.41 1.15,0.79 2.08,1.13l0,0l0,0zm1.97,4.59l0,6.79c1.04,-0.21 1.84,-0.62 2.41,-1.25c0.56,-0.64 0.85,-1.37 0.85,-2.2c0,-0.9 -0.28,-1.59 -0.83,-2.08c-0.55,-0.5 -1.36,-0.92 -2.43,-1.26l0,0l0,0zm-21.69,-84.44l2.26,0l0,12.17l-2.26,0l0,-12.17l0,0l0,0zm-53.36,30.7l11.07,0c0.94,0 1.73,0.77 1.73,1.73l0,9.34c0,0.94 -0.77,1.73 -1.73,1.73l-11.07,0c-0.94,0 -1.73,-0.77 -1.73,-1.73l0,-9.34c0.01,-0.96 0.79,-1.73 1.73,-1.73l0,0l0,0zm0,44.4l11.07,0c0.94,0 1.73,0.77 1.73,1.73l0,9.34c0,0.95 -0.77,1.73 -1.73,1.73l-11.07,0c-0.94,0 -1.73,-0.77 -1.73,-1.73l0,-9.34c0.01,-0.95 0.79,-1.73 1.73,-1.73l0,0l0,0l0,0zm0,-22.2l11.07,0c0.94,0 1.73,0.77 1.73,1.73l0,9.34c0,0.94 -0.77,1.73 -1.73,1.73l-11.07,0c-0.94,0 -1.73,-0.77 -1.73,-1.73l0,-9.34c0.01,-0.96 0.79,-1.73 1.73,-1.73l0,0l0,0zm49.05,-22.2l11.06,0c0.94,0 1.72,0.77 1.72,1.73l0,5.43c-0.59,0.7 -1.03,1.52 -1.27,2.4c-0.75,0.5 -1.51,1.07 -2.17,1.71c-0.49,0.47 -0.94,0.98 -1.34,1.53l-7.99,0c-0.94,0 -1.73,-0.77 -1.73,-1.73l0,-9.34c-0.01,-0.96 0.77,-1.73 1.72,-1.73l0,0l0,0zm0,22.2l7.36,0c0.25,0.43 0.55,0.85 0.89,1.27l0.01,-0.01l3.53,4.23c-0.38,0.33 -0.75,0.66 -1.11,0.98l-0.72,0.63l0.01,0.02l-0.04,0.03c-0.62,0.55 -1.15,1.05 -1.6,1.5c-0.61,0.6 -1.12,1.14 -1.55,1.62c-0.71,0.79 -1.43,1.63 -2.15,2.52l-4.64,0c-0.94,0 -1.73,-0.77 -1.73,-1.73l0,-9.33c0.01,-0.96 0.79,-1.73 1.74,-1.73l0,0l0,0zm-24.53,-22.2l11.07,0c0.94,0 1.73,0.77 1.73,1.73l0,9.34c0,0.94 -0.77,1.73 -1.73,1.73l-11.07,0c-0.94,0 -1.73,-0.77 -1.73,-1.73l0,-9.34c0.01,-0.96 0.78,-1.73 1.73,-1.73l0,0l0,0zm0,44.4l11.07,0c0.94,0 1.73,0.77 1.73,1.73l0,9.34c0,0.95 -0.77,1.73 -1.73,1.73l-11.07,0c-0.94,0 -1.73,-0.77 -1.73,-1.73l0,-9.34c0.01,-0.95 0.78,-1.73 1.73,-1.73l0,0l0,0z" class="st0"/>
  </g>
 </g>
</svg>