<svg width="122.43" height="122.88" xmlns="http://www.w3.org/2000/svg">
 <style type="text/css">.st0{fill-rule:evenodd;clip-rule:evenodd;}</style>

 <g>
  <title>background</title>
  <rect fill="none" id="canvas_background" height="124.88" width="98.41" y="-1" x="-1"/>
 </g>
 <g>
  <title>Layer 1</title>
  <g id="svg_1">
   <path fill="#6563ff" id="svg_2" d="m53.69,103.92c5.23,0 9.48,4.25 9.48,9.48c0,5.24 -4.25,9.48 -9.48,9.48c-5.24,0 -9.48,-4.24 -9.48,-9.48c0,-5.24 4.24,-9.48 9.48,-9.48l0,0zm34.77,-64.08c2.75,-0.02 4.98,2.19 4.97,4.94c0,2.75 -2.24,5 -4.99,5.02l-12.06,0.1l-0.09,12.08c-0.02,2.73 -2.27,4.94 -5.02,4.93c-2.75,0 -4.96,-2.22 -4.94,-4.95l0.09,-12l-12.02,0.09c-2.75,0.02 -4.98,-2.19 -4.97,-4.94c0.01,-2.75 2.24,-5 5,-5.02l12.06,-0.09l0.09,-12.08c0.02,-2.73 2.27,-4.94 5.02,-4.94c2.75,0 4.96,2.22 4.94,4.95l-0.08,12l12,-0.09l0,0l0,0zm-65.83,-27.24l93.3,0c6.1,0 5.77,2.47 5.24,8.77l-3.47,44.24c-0.59,7.05 -0.09,5.34 -7.56,6.41l-68.62,8.73l3.63,10.53c29.77,0 44.16,0 73.91,0c1,3.74 2.36,9.83 3.36,14l-12.28,0l-1.18,-4.26c-24.8,0 -34.25,0 -59.06,0c-13.55,-0.23 -12.19,3.44 -15.44,-8.27l-23.28,-84.64l-11.18,0l0,-8.11l19.61,0c0.91,3.41 2.17,9.15 3.02,12.6l0,0zm70.16,91.32c5.23,0 9.48,4.25 9.48,9.48c0,5.24 -4.25,9.48 -9.48,9.48c-5.24,0 -9.48,-4.24 -9.48,-9.48c0,-5.24 4.25,-9.48 9.48,-9.48l0,0z" class="st0"/>
  </g>
 </g>
</svg>