<svg height="512" viewBox="0 0 64 64" width="512" xmlns="http://www.w3.org/2000/svg"><g id="Basket-Money-Report-Finance-Business"><rect fill="#e6e7e8" height="58" rx="2" width="42" x="9" y="3"/><path d="m51 20.38v38.62a2.006 2.006 0 0 1 -2 2h-28.1c9.95-8.39 22.82-22 30.1-40.62z" fill="#d8d7da"/><path d="m58 45-.13 2-.66 10.22a4 4 0 0 1 -3.99 3.78h-16.44a4 4 0 0 1 -3.99-3.78l-.66-10.22-.13-2z" fill="#ffa733"/><path d="m44 3v8l-2-2-2 2v-8z" fill="#ff5023"/><path d="m39 16h4v13h-4z" fill="#ff5023"/><path d="m31 19h4v10h-4z" fill="#ffd422"/><path d="m23 21h4v8h-4z" fill="#00ccb3"/><path d="m25 57v4h-10v-4h8z" fill="#ffb655"/><path d="m25 49v4h-2-8v-4z" fill="#ffb655"/><path d="m23 53v4h-8-2v-4h2z" fill="#ee8700"/><path d="m9 53h4v4h-4z" fill="#ffb655"/><path d="m13 57h-4-4v4h6 4v-4z" fill="#ff9811"/><path d="m9 53v4h-4-2v-4h2z" fill="#ffb655"/><path d="m14 49h-5-4v4h4 4 2v-4z" fill="#ff9811"/><path d="m9 45h-5v4h1 4 5v-4z" fill="#ffb655"/><circle cx="9" cy="35" fill="#ff9811" r="6"/><path d="m58 45-.13 2h-25.74l-.13-2z" fill="#ff9811"/><path d="m59 41h-28a2.015 2.015 0 0 0 -2 2 2.006 2.006 0 0 0 2 2h28a2.015 2.015 0 0 0 2-2 2.006 2.006 0 0 0 -2-2z" fill="#ffa733"/><path d="m54.11 32.84a1.987 1.987 0 0 0 -2.31 1.62l-.8 4.55-.35 1.99-.71 4h4.06l.71-4 1.03-5.85a2.068 2.068 0 0 0 .03-.35 2 2 0 0 0 -1.66-1.96z" fill="#ee8700"/><path d="m39.35 41 .71 4h-4.06l-.71-4-1.03-5.85a2.068 2.068 0 0 1 -.03-.35 2 2 0 0 1 3.97-.34z" fill="#ee8700"/><path d="m59 40h-3.1l.829-4.689a3.145 3.145 0 0 0 .042-.511 3.005 3.005 0 0 0 -4.711-2.46c-.022.015-.038.034-.059.05v-27.39a3 3 0 0 0 -3-3h-38.001a3 3 0 0 0 -3 3v23.08a6.991 6.991 0 0 0 0 13.84v2.08h-4a1 1 0 0 0 -1 1v4a1 1 0 0 0 1 1v2h-1a1 1 0 0 0 -1 1v4a1 1 0 0 0 1 1h1v3a1 1 0 0 0 1 1h48.216a5 5 0 0 0 4.992-4.714l.73-11.286h.062a3.015 3.015 0 0 0 3-3 3 3 0 0 0 -3-3zm-6.215-5.368a1 1 0 0 1 .414-.65.968.968 0 0 1 .738-.157.994.994 0 0 1 .833.975 1.166 1.166 0 0 1 -.014.177l-1.595 9.023h-2.029zm-21.785 9.368a1 1 0 0 1 -1-1 .977.977 0 0 1 .307-.713.959.959 0 0 1 .693-.287h3.455l.353 2zm5.839 0-1.592-9.01a1.109 1.109 0 0 1 -.017-.19 1 1 0 0 1 .842-.977.966.966 0 0 1 .729.159 1 1 0 0 1 .414.651l1.653 9.367zm4.061 0-.352-2h8.908l-.356 2zm.1-40h2v4.586l-.293-.293a1 1 0 0 0 -1.414 0l-.293.293zm-37 31a5 5 0 1 1 5 5 5.006 5.006 0 0 1 -5-5zm1 11h8v2h-8zm11 4h8v2h-8zm6 6h-8v-2h8zm-16-6h8v2h-8zm-2 4h8v2h-8zm2 4h8v2h-8zm18 2h-8v-2h8zm0-4v-2h1a1 1 0 0 0 1-1v-4a1 1 0 0 0 -1-1h-10v-3a1 1 0 0 0 -1-1h-4v-2.08a6.991 6.991 0 0 0 0-13.84v-23.08a1 1 0 0 1 1-1h28v7a1 1 0 0 0 1.707.707l1.293-1.293 1.293 1.293a1 1 0 0 0 .707.293.987.987 0 0 0 .383-.076 1 1 0 0 0 .617-.924v-7h4a1 1 0 0 1 1 1v33.905l-.193 1.095h-9.614l-1.007-5.712a3 3 0 0 0 -5.956.512 3.1 3.1 0 0 0 .045.524l.825 4.676h-3.1a3.015 3.015 0 0 0 -3 3 3 3 0 0 0 3 3h.062l.73 11.277a4.97 4.97 0 0 0 1 2.723h-6.792v-3a1 1 0 0 0 -1-1zm32.212 1.166a3 3 0 0 1 -3 2.834h-16.428a3 3 0 0 1 -3-2.843l-.717-11.157h23.866zm3.481-13.453a.959.959 0 0 1 -.693.287h-3.808l.353-2h3.455a1 1 0 0 1 1 1 .977.977 0 0 1 -.307.713z"/><path d="m44 48h2v10h-2z"/><path d="m50 48h2v10h-2z"/><path d="m38 48h2v10h-2z"/><path d="m9 39a4 4 0 0 0 4-4h-2a2 2 0 0 1 -2 2z"/><path d="m9 31a4 4 0 0 0 -4 4h2a2 2 0 0 1 2-2z"/><path d="m22 14a3 3 0 0 0 -3-3h-2a1 1 0 0 1 0-2h2a1 1 0 0 1 1 1h2a3 3 0 0 0 -3-3v-1h-2v1a3 3 0 0 0 0 6h2a1 1 0 0 1 0 2h-2a1 1 0 0 1 -1-1h-2a3 3 0 0 0 3 3v1h2v-1a3 3 0 0 0 3-3z"/><path d="m46 28h-2v-12a1 1 0 0 0 -1-1h-4a1 1 0 0 0 -1 1v12h-2v-9a1 1 0 0 0 -1-1h-4a1 1 0 0 0 -1 1v9h-2v-7a1 1 0 0 0 -1-1h-4a1 1 0 0 0 -1 1v7h-2v2h26zm-6-11h2v11h-2zm-8 3h2v8h-2zm-8 2h2v6h-2z"/></g></svg>