<svg id="filled_outline" height="512" viewBox="0 0 512 512" width="512" xmlns="http://www.w3.org/2000/svg" data-name="filled outline"><path d="m136 424v-376a24 24 0 0 1 24-24h304a24 24 0 0 1 24 24v376a16 16 0 0 1 -16 16h-320a16 16 0 0 1 -16-16z" fill="#548aff"/><path d="m235.716 231.029h56.569v33.941h-56.569z" fill="#ffa100" transform="matrix(.707 -.707 .707 .707 -98.039 259.314)"/><path d="m80 440h112v56h-112z" fill="#718799"/><path d="m80 440v-80h-40v-32a32 32 0 0 1 32-32h88a32 32 0 0 1 32 32v112z" fill="#ffb401"/><path d="m272 280-199.72 199.71973a28.28427 28.28427 0 0 1 -40-40l199.72-199.71973z" fill="#c47220"/><path d="m40 352v24a32 32 0 0 0 32 32h80a24 24 0 0 0 24-24v-8h-16v-9.52787a6.47213 6.47213 0 0 0 -6.47213-6.47213 6.4722 6.4722 0 0 0 -2.89442.68328l-14.63345 7.31672h-56v-16z" fill="#ffceb6"/><path d="m240 360h-24a24 24 0 0 1 -24-24v-8h16v-9.52787a6.47213 6.47213 0 0 1 6.47213-6.47213 6.4722 6.4722 0 0 1 2.89442.68328l14.63345 7.31672h8a20 20 0 0 1 20 20 20 20 0 0 1 -20 20z" fill="#ffceb6"/><path d="m223.029 243.716h33.941v56.569h-33.941z" fill="#ffc431" transform="matrix(.707 -.707 .707 .707 -122.039 249.373)"/><circle cx="328" cy="184" fill="#8be0e8" r="72"/><path d="m288 336h48v56h-48z" fill="#00a64f"/><path d="m336 304h48v88h-48z" fill="#00b55b"/><path d="m384 264h48v128h-48z" fill="#02c26a"/><path d="m136 280v28a12 12 0 0 1 -24 0v-28z" fill="#ffceb6"/><path d="m128 296a16 16 0 0 1 -16-16v-8l8-8h24v16a16 16 0 0 1 -16 16z" fill="#ffceb6"/><path d="m144 264 4.68629-4.6863a11.3137 11.3137 0 0 0 3.31371-8 11.31369 11.31369 0 0 0 -11.3137-11.3137h-12.6863a16 16 0 0 0 -16 16v16l8-8z" fill="#c47220"/><path d="m216 368h24a28.00111 28.00111 0 0 0 9.61353-54.2998l28.04321-28.043a8.00034 8.00034 0 0 0 0-11.31446l-2.34274-2.34274 16.62385-16.62378a80.09045 80.09045 0 1 0 -35.314-35.314l-16.62385 16.62378-2.34326-2.34327a8.00182 8.00182 0 0 0 -11.31348 0l-53.65726 53.65727h-22.0622a23.88426 23.88426 0 0 0 1.3762-8v-12.68652l2.34277-2.34278a19.31354 19.31354 0 0 0 -13.65625-32.9707h-12.68652a24.02718 24.02718 0 0 0 -24 24v32h-32a40.04552 40.04552 0 0 0 -40 40v48a40.001 40.001 0 0 0 18.7937 33.89258l-24.1667 24.16699a36.28675 36.28675 0 0 0 45.373 56.12109v5.81934h16v-20.686l27.314-27.314h68.686v48h16v-132.30518a31.79414 31.79414 0 0 0 16 4.30518zm-62.47217-16a14.55144 14.55144 0 0 0 -6.47217 1.52832l-12.94433 6.47168h-10.79743l84.68592-84.686 28.68618 28.686-6.26581 6.26562-9.47736-4.73828a14.47185 14.47185 0 0 0 -20.94283 12.94434v1.52832h-8a8.00008 8.00008 0 0 0 -8 8v8a31.79617 31.79617 0 0 0 4.44427 16.2417l-15.75827 15.7583h-4.686v-1.52832a14.48846 14.48846 0 0 0 -14.47217-14.47168zm86.47217 0h-24a16.01833 16.01833 0 0 1 -16-16h8a8.00008 8.00008 0 0 0 8-8v-7.05566l12.42236 6.21093a7.99737 7.99737 0 0 0 3.57764.84473h8a12 12 0 0 1 0 24zm88-232a64 64 0 1 1 -64 64 64.07239 64.07239 0 0 1 64-64zm-62.51685 113.83081a80.671 80.671 0 0 0 12.686 12.686l-14.16915 14.16919-12.686-12.686zm-33.48315 17.48267 28.686 28.68652-12.686 12.686-28.68628-28.686zm-112 51.31052a23.894 23.894 0 0 0 8 1.376v4a4 4 0 0 1 -8 0zm8-54.624h12.68652a3.31353 3.31353 0 0 1 2.34327 5.65625l-2.34379 2.34375h-20.686a8.00917 8.00917 0 0 1 8-8zm-8 27.31348 3.31348-3.31348h12.68652v8a8 8 0 0 1 -16 0zm-48 28.68652h32v4a20 20 0 0 0 40 0v-4h12.686l-56 56h-12.686v-32h-16v16h-24v-16a24.02718 24.02718 0 0 1 24-24zm-24 56h24v8a8.00008 8.00008 0 0 0 8 8h56a7.99737 7.99737 0 0 0 3.57764-.84473l12.42236-6.21093v7.05566a8.00008 8.00008 0 0 0 8 8h8a16.01833 16.01833 0 0 1 -16 16h-80a24.02718 24.02718 0 0 1 -24-24zm4.28418 120a20.28409 20.28409 0 0 1 -14.34326-34.627l29.62463-29.62451a40.18517 40.18517 0 0 0 4.43445.25151h52.68616l-58.05921 58.05957a20.14889 20.14889 0 0 1 -14.34277 5.94043zm79.02982-48 16-16h4.686a32.03635 32.03635 0 0 0 32-32v48z"/><path d="m128 472h16v24h-16z"/><path d="m464 16h-304a32.03635 32.03635 0 0 0 -32 32v168h16v-168a16.01833 16.01833 0 0 1 16-16h304a16.01833 16.01833 0 0 1 16 16v376a8.00917 8.00917 0 0 1 -8 8h-256v16h256a24.02718 24.02718 0 0 0 24-24v-376a32.03635 32.03635 0 0 0 -32-32z"/><path d="m432 256h-48a8.00008 8.00008 0 0 0 -8 8v32h-40a8.00008 8.00008 0 0 0 -8 8v24h-40a8.00008 8.00008 0 0 0 -8 8v48h-16v16h192v-16h-16v-120a8.00008 8.00008 0 0 0 -8-8zm-136 88h32v40h-32zm48-8v-24h32v72h-32zm48 48v-112h32v112z"/><path d="m168 56h24v16h-24z"/><path d="m208 56h48v16h-48z"/><path d="m168 88h64v16h-64z"/><path d="m248 88h24v16h-24z"/></svg>