<svg width="121.7" height="122.88" xmlns="http://www.w3.org/2000/svg">

 <g>
  <title>background</title>
  <rect fill="none" id="canvas_background" height="402" width="582" y="-1" x="-1"/>
 </g>
 <g>
  <title>Layer 1</title>
  <g id="svg_1">
   <path fill="#6563ff" id="svg_2" d="m53.61,0c14.79,0 28.2,6.02 37.92,15.69c9.72,9.72 15.69,23.09 15.69,37.92c0,10.82 -3.23,20.93 -8.73,29.34l23.21,25.29l-16.01,14.63l-22.38,-24.61c-8.5,5.66 -18.72,8.97 -29.7,8.97c-14.79,0 -28.2,-6.02 -37.92,-15.69c-9.71,-9.73 -15.69,-23.1 -15.69,-37.93c0,-14.79 6.02,-28.2 15.69,-37.92c9.72,-9.71 23.09,-15.69 37.92,-15.69l0,0zm-24.19,42.19l4.84,0l11.83,-13.25c1.05,-1.18 2.87,-1.28 4.05,-0.23l0,0c1.18,1.05 1.28,2.87 0.23,4.05l-8.42,9.43l25.8,0l-8.42,-9.43c-1.05,-1.18 -0.95,-3 0.23,-4.05l0,0c1.18,-1.05 3,-0.95 4.05,0.23l11.83,13.26l4.62,0l0.06,0l4.34,0c0.97,0 1.77,0.8 1.77,1.77l0,4.99c0,0.97 -0.8,1.77 -1.77,1.77l-3.76,0l-1.93,24.37c-0.05,0.67 -0.56,1.23 -1.23,1.23l-45.61,0c-0.67,0 -1.17,-0.55 -1.23,-1.23l-1.93,-24.37l-3.76,0c-0.97,0 -1.77,-0.8 -1.77,-1.77l0,-4.99c0,-0.97 0.8,-1.77 1.77,-1.77l4.34,0l0.07,-0.01l0,0zm22.68,9.48l0,16.16l5.65,0l0,-16.16l-5.65,0l0,0zm-5.28,16.17l0,-16.17l-5.52,0l0,16.16l5.52,0l0,0.01zm16.2,-16.17l0,16.16l5.63,0l0,-16.16l-5.63,0l0,0zm24.26,-31.73c-8.61,-8.61 -20.53,-13.96 -33.67,-13.96s-25.06,5.35 -33.67,13.96c-8.61,8.62 -13.96,20.53 -13.96,33.67s5.35,25.06 13.96,33.67c8.61,8.61 20.53,13.96 33.67,13.96s25.06,-5.35 33.67,-13.96c8.61,-8.61 13.96,-20.53 13.96,-33.67s-5.34,-25.05 -13.96,-33.67l0,0l0,0z"/>
  </g>
 </g>
</svg>