<svg width="64" height="64" xmlns="http://www.w3.org/2000/svg">

 <g>
  <title>background</title>
  <rect fill="none" id="canvas_background" height="602" width="802" y="-1" x="-1"/>
 </g>
 <g>
  <title>Layer 1</title>
  <g id="svg_1">
   <path fill="#1c3faa" id="svg_2" d="m16,37l10,0c0.552,0 1,-0.447 1,-1l0,-1l2.764,0l3.789,1.895c0.138,0.069 0.292,0.105 0.447,0.105l12,0c1.654,0 3,-1.346 3,-3c0,-0.771 -0.301,-1.468 -0.78,-2c0.48,-0.532 0.78,-1.229 0.78,-2s-0.301,-1.468 -0.78,-2c0.48,-0.532 0.78,-1.229 0.78,-2s-0.301,-1.468 -0.78,-2c0.48,-0.532 0.78,-1.229 0.78,-2c0,-1.654 -1.346,-3 -3,-3l-7,0l0,-6c0,-2.206 -1.794,-4 -4,-4l-1,0c-0.552,0 -1,0.447 -1,1l0,5.586l-3.414,3.414l-2.586,0l0,-1c0,-0.553 -0.448,-1 -1,-1l-10,0c-0.552,0 -1,0.447 -1,1l0,18c0,0.553 0.448,1 1,1zm14,-16c0.265,0 0.52,-0.105 0.707,-0.293l4,-4c0.188,-0.187 0.293,-0.441 0.293,-0.707l0,-5c1.103,0 2,0.897 2,2l0,7c0,0.553 0.448,1 1,1l8,0c0.551,0 1,0.448 1,1s-0.449,1 -1,1l-7,0l0,2l7,0c0.551,0 1,0.448 1,1s-0.449,1 -1,1l-7,0l0,2l7,0c0.551,0 1,0.448 1,1s-0.449,1 -1,1l-7,0l0,2l7,0c0.551,0 1,0.448 1,1s-0.449,1 -1,1l-11.764,0l-3.789,-1.895c-0.138,-0.069 -0.292,-0.105 -0.447,-0.105l-3,0l0,-12l3,0zm-13,-2l8,0l0,16l-8,0l0,-16z"/>
   <path fill="#1c3faa" id="svg_3" d="m32,46c1.103,0 2,0.897 2,2l2,0c0,-1.859 -1.28,-3.411 -3,-3.858l0,-2.142l-2,0l0,2.142c-1.72,0.447 -3,1.999 -3,3.858c0,2.206 1.794,4 4,4c1.103,0 2,0.897 2,2s-0.897,2 -2,2s-2,-0.897 -2,-2l-2,0c0,1.859 1.28,3.411 3,3.858l0,2.142l2,0l0,-2.142c1.72,-0.447 3,-1.999 3,-3.858c0,-2.206 -1.794,-4 -4,-4c-1.103,0 -2,-0.897 -2,-2s0.897,-2 2,-2z"/>
   <path fill="#1c3faa" id="svg_4" d="m51,46c1.103,0 2,0.897 2,2l2,0c0,-1.859 -1.28,-3.411 -3,-3.858l0,-2.142l-2,0l0,2.142c-1.72,0.447 -3,1.999 -3,3.858c0,2.206 1.794,4 4,4c1.103,0 2,0.897 2,2s-0.897,2 -2,2s-2,-0.897 -2,-2l-2,0c0,1.859 1.28,3.411 3,3.858l0,2.142l2,0l0,-2.142c1.72,-0.447 3,-1.999 3,-3.858c0,-2.206 -1.794,-4 -4,-4c-1.103,0 -2,-0.897 -2,-2s0.897,-2 2,-2z"/>
   <path fill="#1c3faa" id="svg_5" d="m51,39c-3.735,0 -7.254,1.765 -9.509,4.685c-2.196,-2.843 -5.629,-4.685 -9.491,-4.685c-3.863,0 -7.295,1.842 -9.492,4.685c-2.255,-2.92 -5.774,-4.685 -9.508,-4.685c-6.617,0 -12,5.383 -12,12s5.383,12 12,12c3.734,0 7.253,-1.765 9.508,-4.686c2.197,2.844 5.629,4.686 9.492,4.686c3.865,0 7.3,-1.845 9.496,-4.692c2.253,2.926 5.746,4.692 9.504,4.692c6.617,0 12,-5.383 12,-12s-5.383,-12 -12,-12zm-38,22c-5.514,0 -10,-4.486 -10,-10s4.486,-10 10,-10c3.359,0 6.497,1.726 8.339,4.516c-0.85,1.646 -1.339,3.507 -1.339,5.484c0,1.976 0.489,3.838 1.338,5.483c-1.841,2.791 -4.979,4.517 -8.338,4.517zm19,0c-5.514,0 -10,-4.486 -10,-10s4.486,-10 10,-10s10,4.486 10,10s-4.486,10 -10,10zm19,0c-3.381,0 -6.496,-1.721 -8.338,-4.517c0.849,-1.646 1.338,-3.507 1.338,-5.483s-0.489,-3.838 -1.339,-5.484c1.842,-2.79 4.979,-4.516 8.339,-4.516c5.514,0 10,4.486 10,10s-4.486,10 -10,10z"/>
   <path fill="#1c3faa" id="svg_6" d="m13,46c1.103,0 2,0.897 2,2l2,0c0,-1.859 -1.28,-3.411 -3,-3.858l0,-2.142l-2,0l0,2.142c-1.72,0.447 -3,1.999 -3,3.858c0,2.206 1.794,4 4,4c1.103,0 2,0.897 2,2s-0.897,2 -2,2s-2,-0.897 -2,-2l-2,0c0,1.859 1.28,3.411 3,3.858l0,2.142l2,0l0,-2.142c1.72,-0.447 3,-1.999 3,-3.858c0,-2.206 -1.794,-4 -4,-4c-1.103,0 -2,-0.897 -2,-2s0.897,-2 2,-2z"/>
   <path fill="#1c3faa" id="svg_7" d="m34,1l2,0l0,5l-2,0l0,-5z"/>
   <path fill="#1c3faa" id="svg_8" d="m38.2886,6.2964l3.9995,-3.9995l1.414,1.414l-3.9995,3.9995l-1.414,-1.414z"/>
   <path fill="#1c3faa" id="svg_9" d="m26.2896,3.7106l1.414,-1.414l3.9995,3.9995l-1.414,1.414l-3.9995,-3.9995z"/>
  </g>
 </g>
</svg>